{"asset":{"version":"2.0","generator":"THREE.GLTFExporter r172"},"scenes":[{"nodes":[0]}],"scene":0,"nodes":[{"mesh":0}],"bufferViews":[{"buffer":0,"byteOffset":0,"byteLength":5148,"target":34962,"byteStride":12},{"buffer":0,"byteOffset":5148,"byteLength":860,"target":34963}],"buffers":[{"byteLength":6008,"uri":"data:application/octet-stream;base64,"}],"accessors":[{"bufferView":0,"componentType":5126,"count":429,"max":[5.315279006958008,3.835644006729126,7.385712146759033],"min":[-5.884721279144287,0.0156441330909729,-6.614288330078125],"type":"VEC3"},{"bufferView":1,"componentType":5123,"count":429,"max":[428],"min":[0],"type":"SCALAR"}],"materials":[{"pbrMetallicRoughness":{"metallicFactor":0,"roughnessFactor":1}}],"meshes":[{"primitives":[{"mode":4,"attributes":{"POSITION":0},"indices":1,"material":0}]}]}